<?xml version="1.0" encoding="utf-8"?>
<!-- Generator: Adobe Illustrator 16.0.0, SVG Export Plug-In . SVG Version: 6.00 Build 0)  -->
<!DOCTYPE svg PUBLIC "-//W3C//DTD SVG 1.1//EN" "http://www.w3.org/Graphics/SVG/1.1/DTD/svg11.dtd">
<svg version="1.1" id="图层_1" xmlns="http://www.w3.org/2000/svg" xmlns:xlink="http://www.w3.org/1999/xlink" x="0px" y="0px"
	 width="64px" height="64px" viewBox="0 0 64 64" enable-background="new 0 0 64 64" xml:space="preserve">
<path fill="#1296DB" d="M46.613,61.358H17.387c-3.474,0-6.299-2.823-6.299-6.299V40.041c0-1.159,0.939-2.101,2.1-2.101
	s2.101,0.94,2.101,2.101V55.06c0,1.158,0.942,2.102,2.101,2.102h29.228c1.157,0,2.1-0.941,2.1-2.102V33.976H13.188
	c-1.16,0-2.101-0.938-2.101-2.1V8.94c0-3.474,2.826-6.299,6.3-6.299h29.227c3.475,0,6.3,2.826,6.3,6.299v14.537
	c0,1.16-0.94,2.1-2.101,2.1s-2.1-0.939-2.1-2.1V8.94c0-1.158-0.941-2.1-2.1-2.1H17.387c-1.158,0-2.1,0.941-2.1,2.1v20.836h35.527
	c1.158,0,2.1,0.939,2.1,2.101v23.185C52.913,58.535,50.088,61.358,46.613,61.358z"/>
<path fill="#1296DB" d="M21.691,25.5c-1.16,0-2.101-0.938-2.101-2.099v-5.601c0-1.159,0.94-2.1,2.101-2.1c1.158,0,2.1,0.94,2.1,2.1
	v5.601C23.791,24.56,22.852,25.5,21.691,25.5z"/>
<path fill="#1296DB" d="M21.691,47.926c-1.16,0-2.101-0.938-2.101-2.1v-5.601c0-1.158,0.94-2.1,2.101-2.1c1.158,0,2.1,0.939,2.1,2.1
	v5.601C23.791,46.985,22.852,47.926,21.691,47.926z"/>
</svg>
