<?xml version="1.0" encoding="utf-8"?>
<!-- Generator: Adobe Illustrator 16.0.0, SVG Export Plug-In . SVG Version: 6.00 Build 0)  -->
<!DOCTYPE svg PUBLIC "-//W3C//DTD SVG 1.1//EN" "http://www.w3.org/Graphics/SVG/1.1/DTD/svg11.dtd">
<svg version="1.1" id="图层_1" xmlns="http://www.w3.org/2000/svg" xmlns:xlink="http://www.w3.org/1999/xlink" x="0px" y="0px"
	 width="24px" height="24px" viewBox="0 0 24 24" enable-background="new 0 0 24 24" xml:space="preserve">
<path fill="#1296DB" d="M11.999,0.119C5.438,0.119,0.118,5.438,0.118,12s5.319,11.881,11.881,11.881
	c6.563,0,11.883-5.318,11.883-11.881S18.563,0.119,11.999,0.119z M12.091,22.473c-5.79,0-10.481-4.691-10.481-10.482
	c0-5.789,4.691-10.481,10.481-10.481c5.791,0,10.483,4.693,10.483,10.481C22.574,17.781,17.882,22.473,12.091,22.473z
	 M12.557,10.003h-0.604c-0.239,0-0.434,0.194-0.434,0.435v6.549c0,0.24,0.194,0.435,0.434,0.435h0.604
	c0.239,0,0.435-0.194,0.435-0.435v-6.549C12.99,10.197,12.796,10.003,12.557,10.003z M11.953,8.559h0.578
	c0.24,0,0.435-0.195,0.435-0.436V6.99c0-0.239-0.194-0.434-0.435-0.434h-0.578c-0.239,0-0.434,0.195-0.434,0.434v1.132
	C11.52,8.363,11.714,8.559,11.953,8.559z"/>
</svg>
